#  wavefront obj file written by the visualization toolkit

mtllib cube.mtl

v -0.5 -0.5 -0.5
v -0.5 -0.5 0.5
v -0.5 0.5 0.5
v -0.5 0.5 -0.5
v 0.5 -0.5 -0.5
v 0.5 0.5 -0.5
v 0.5 0.5 0.5
v 0.5 -0.5 0.5
vn -0.5773503184318542 -0.5773503184318542 -0.5773503184318542
vn -0.5773503184318542 -0.5773503184318542 0.5773503184318542
vn -0.5773503184318542 0.5773503184318542 0.5773503184318542
vn -0.5773503184318542 0.5773503184318542 -0.5773503184318542
vn 0.5773503184318542 -0.5773503184318542 -0.5773503184318542
vn 0.5773503184318542 0.5773503184318542 -0.5773503184318542
vn 0.5773503184318542 0.5773503184318542 0.5773503184318542
vn 0.5773503184318542 -0.5773503184318542 0.5773503184318542
vt 0 0 0
vt 1 0 0
vt 1 1 0
vt 0 1 0
vt 0 0 0
vt 0 1 0
vt -1 1 0
vt -1 0 0

g grp1
usemtl mtl1
f 1/1/1 2/2/2 4/4/4 
f 3/3/3 4/4/4 2/2/2 
f 5/5/5 6/6/6 8/8/8 
f 7/7/7 8/8/8 6/6/6 
f 1/1/1 5/5/5 2/2/2 
f 8/8/8 2/2/2 5/5/5 
f 4/4/4 3/3/3 6/6/6 
f 7/7/7 6/6/6 3/3/3 
f 1/1/1 4/4/4 5/5/5 
f 6/6/6 5/5/5 4/4/4 
f 2/2/2 8/8/8 3/3/3 
f 7/7/7 3/3/3 8/8/8 
